<svg width="814" height="948" viewBox="0 0 814 948" fill="none" xmlns="http://www.w3.org/2000/svg" xmlnsXlink="http://www.w3.org/1999/xlink">
  <rect width="814" height="948" fill="url(#pattern0)" />
  <path d="M289 499.5C284 469 294 462 297 459H298L299.5 462L301.5 466.5L303.5 469.5L305.5 472.5L307 474H309.5H314H318.5H321.5L323 472.5L324.5 469.5L329 457.5C330.6 458.3 334.667 461.5 336.5 463C342.5 467.8 346.333 477.667 347.5 482C349.5 492.8 344 504.167 341 508.5C334.6 518.1 318.333 519.5 311 519C302.2 518.6 292.667 505.833 289 499.5Z" fill="#3A3938" stroke="black" />
  <path fill-rule="evenodd" clip-rule="evenodd" d="M294 470C294 469.448 294.448 469 295 469H301.979C302.306 469 302.611 469.159 302.799 469.427L305.701 473.573C305.889 473.841 306.194 474 306.521 474H310.5C311.052 474 311.5 474.448 311.5 475V507C311.5 507.552 311.052 508 310.5 508H295C294.448 508 294 507.552 294 507V470ZM314.429 481.705C314.18 481.296 314.256 480.767 314.611 480.445L318.856 476.586C319.225 476.25 319.785 476.238 320.169 476.557L323.86 479.633C324.511 480.176 325.5 479.713 325.5 478.865V470C325.5 469.448 325.948 469 326.5 469H335C335.552 469 336 469.448 336 470V507C336 507.552 335.552 508 335 508H328.5C327.948 508 327.5 507.552 327.5 507V504.284C327.5 503.412 326.462 502.958 325.822 503.549L321.778 507.282C321.355 507.672 320.693 507.627 320.327 507.183L314.577 500.201C314.25 499.803 314.278 499.222 314.642 498.858L320.444 493.056C320.77 492.73 320.831 492.223 320.591 491.829L314.429 481.705ZM301 497C300.448 497 300 496.552 300 496V481C300 480.448 300.448 480 301 480H304C304.552 480 305 480.448 305 481V496C305 496.552 304.552 497 304 497H301Z" fill="#FAC777" />
  <path d="M201.5 432.5C179.5 432.5 178 455.167 180 466.5L182.734 469.052C185.771 471.887 189.858 473.319 194 473L218.5 448.5C217.011 444.363 216.424 440.053 214 437.5C210.565 433.881 203.65 433.282 201.5 432.5Z" fill="url(#paint0_linear_317_123)" />
  <path d="M188.5 452.5C186.5 461.7 191.667 470.333 194.5 473.5C203.3 475.1 210.5 469.833 213 467C218.6 458.6 219 451.5 218.5 449L214 443.5C207.6 437.9 200.667 439.167 198 440.5C191.6 442.9 189 449.5 188.5 452.5Z" fill="#F8ED9C" stroke="black" />
  <path d="M373.5 423.5L375.5 421L377 422L378 425L377 428L375.5 430.5L373.5 429.5V423.5Z" fill="#FACD7D" stroke="black" />
  <path d="M466.5 434.5L468.5 439.5C472 448 470.1 470.5 466.5 476.5C462.9 482.5 459.667 483.667 458.5 483.5C456.5 481.9 455 477.833 454.5 476C454 467 453.7 447.1 456.5 439.5C459.3 431.9 463 431.333 464.5 432L466.5 434.5Z" fill="url(#paint1_linear_317_123)" />
  <path d="M462 455.5C463.2 445.9 466.167 441.833 467.5 441L468.5 440.5L469.5 442.5C470.7 447.7 470.667 455.667 470.5 459C469.7 468.6 466.167 476 464.5 478.5C461.3 474.9 461.5 461.667 462 455.5Z" fill="#F8ED9C" stroke="black" />
  <path d="M565 512.5C568.2 487.7 589 466.5 599 459C605 455.8 610.167 456.667 612 457.5C618 459.9 621.5 466.167 622.5 469C629.5 529 605 552 597.5 561C591.5 568.2 581 570 576.5 570C570.1 570.4 566.167 563.167 565 559.5C563.667 554.167 561.8 537.3 565 512.5Z" fill="#33373A" stroke="black" />
  <g filter="url(#filter0_d_317_123)">
    <path d="M610.188 500.488L594.537 490.172C593.141 489.252 592.765 487.361 593.744 486.006C600.619 476.492 605.731 473.2 607.965 472.599C608.315 472.505 608.684 472.54 609.013 472.691C611.453 473.811 613.237 477.665 613.925 479.764C613.976 479.921 614.037 480.07 614.105 480.221C615.861 484.081 615.414 492.372 614.665 498.484C614.403 500.626 611.99 501.675 610.188 500.488Z" fill="#F8F19F" />
    <path d="M609.938 512.196L590.333 499.792C588.822 498.836 586.815 499.406 586.032 501.013L578.303 516.878C578.104 517.287 578 517.737 578 518.192V521.521C578 522.453 578.429 523.331 579.173 523.892C586.67 529.544 600.104 538.776 602 536.5C603.793 534.348 608.401 522.922 611.136 515.778C611.645 514.451 611.139 512.955 609.938 512.196Z" fill="#F8F19F" />
    <path d="M593.293 541.944L581.619 534.461C579.622 533.181 577 534.615 577 536.987V544.703C577 544.9 577.02 545.098 577.058 545.291L578.384 551.918C578.46 552.302 578.612 552.668 578.829 552.994L579.609 554.164C580.166 554.999 581.103 555.5 582.106 555.5H584C584.321 555.5 589.604 550.56 593.744 546.628C595.152 545.291 594.927 542.992 593.293 541.944Z" fill="#F8F19F" />
    <path d="M610.188 500.488L594.537 490.172C593.141 489.252 592.765 487.361 593.744 486.006C600.619 476.492 605.731 473.2 607.965 472.599C608.315 472.505 608.684 472.54 609.013 472.691C611.453 473.811 613.237 477.665 613.925 479.764C613.976 479.921 614.037 480.07 614.105 480.221C615.861 484.081 615.414 492.372 614.665 498.484C614.403 500.626 611.99 501.675 610.188 500.488Z" stroke="black" />
    <path d="M609.938 512.196L590.333 499.792C588.822 498.836 586.815 499.406 586.032 501.013L578.303 516.878C578.104 517.287 578 517.737 578 518.192V521.521C578 522.453 578.429 523.331 579.173 523.892C586.67 529.544 600.104 538.776 602 536.5C603.793 534.348 608.401 522.922 611.136 515.778C611.645 514.451 611.139 512.955 609.938 512.196Z" stroke="black" />
    <path d="M593.293 541.944L581.619 534.461C579.622 533.181 577 534.615 577 536.987V544.703C577 544.9 577.02 545.098 577.058 545.291L578.384 551.918C578.46 552.302 578.612 552.668 578.829 552.994L579.609 554.164C580.166 554.999 581.103 555.5 582.106 555.5H584C584.321 555.5 589.604 550.56 593.744 546.628C595.152 545.291 594.927 542.992 593.293 541.944Z" stroke="black" />
  </g>
  <defs>
    <pattern id="pattern0" patternContentUnits="objectBoundingBox" width="1" height="1">
      <use xlinkHref="#image0_317_123" transform="matrix(0.0012285 0 0 0.00105485 -0.357494 -0.623418)" />
    </pattern>
    <filter id="filter0_d_317_123" x="566.5" y="462.047" width="59.3251" height="103.953" filterUnits="userSpaceOnUse" color-interpolation-filters="sRGB">
      <feFlood flood-opacity="0" result="BackgroundImageFix" />
      <feColorMatrix in="SourceAlpha" type="matrix" values="0 0 0 0 0 0 0 0 0 0 0 0 0 0 0 0 0 0 127 0" result="hardAlpha" />
      <feOffset />
      <feGaussianBlur stdDeviation="5" />
      <feComposite in2="hardAlpha" operator="out" />
      <feColorMatrix type="matrix" values="0 0 0 0 0.6 0 0 0 0 0.419608 0 0 0 0 0.184314 0 0 0 1 0" />
      <feBlend mode="normal" in2="BackgroundImageFix" result="effect1_dropShadow_317_123" />
      <feBlend mode="normal" in="SourceGraphic" in2="effect1_dropShadow_317_123" result="shape" />
    </filter>
    <linearGradient id="paint0_linear_317_123" x1="214" y1="465.5" x2="186" y2="439.5" gradientUnits="userSpaceOnUse">
      <stop stop-color="#A56634" />
      <stop offset="1" stop-color="#A56634" stop-opacity="0" />
    </linearGradient>
    <linearGradient id="paint1_linear_317_123" x1="470" y1="460" x2="454" y2="458.5" gradientUnits="userSpaceOnUse">
      <stop stop-color="#7C603C" />
      <stop offset="1" stop-color="#FF8F00" stop-opacity="0" />
    </linearGradient>
  </defs>
</svg>